# xmcd CD database file
#
# Track frame offsets:
#	187
#	21937
#	45562
#
# Disc length: 893 seconds
#
# Revision: 0
# Processed by: cddbd v1.5.1PL0 Copyright (c) Steve Scherf et al.
# Submitted via: CDex 1.51
#
DISCID=1c037b03
DTITLE=Chie Kajiura - ＊＊＊届くほど高く↑＊＊＊
DYEAR=1996
DGENRE=JPop
TTITLE0=＊＊＊届くほど高く↑＊＊＊
TTITLE1=→シロとクロ←
TTITLE2=＊＊＊届くほど高く↑＊＊＊[instrumental version]
EXTD=YEAR: 1996
EXTT0=
EXTT1=
EXTT2=
PLAYORDER=
